<svg width="26" height="26" viewBox="0 0 26 26" fill="none" xmlns="http://www.w3.org/2000/svg">
<path d="M24.6582 21.7559C25.0977 22.2441 25.0977 22.9766 24.6094 23.416L23.2422 24.7832C22.8027 25.2715 22.0703 25.2715 21.582 24.7832L16.748 19.9492C16.5039 19.7051 16.4062 19.4121 16.4062 19.1191V18.2891C14.6484 19.6562 12.5 20.4375 10.1562 20.4375C4.54102 20.4375 0 15.8965 0 10.2812C0 4.71484 4.54102 0.125 10.1562 0.125C15.7227 0.125 20.3125 4.71484 20.3125 10.2812C20.3125 12.6738 19.4824 14.8223 18.1641 16.5312H18.9453C19.2383 16.5312 19.5312 16.6777 19.7754 16.873L24.6582 21.7559ZM10.1562 16.5312C13.5742 16.5312 16.4062 13.748 16.4062 10.2812C16.4062 6.86328 13.5742 4.03125 10.1562 4.03125C6.68945 4.03125 3.90625 6.86328 3.90625 10.2812C3.90625 13.748 6.68945 16.5312 10.1562 16.5312Z" fill="#F34D33"/>
</svg>
